<mxfile host="Electron" agent="Mozilla/5.0 (Windows NT 10.0; Win64; x64) AppleWebKit/537.36 (KHTML, like Gecko) draw.io/24.7.17 Chrome/128.0.6613.36 Electron/32.0.1 Safari/537.36" version="24.7.17">
  <diagram name="Strona-1" id="ITFV6ZwZZb2lDWU_6LcH">
    <mxGraphModel dx="1050" dy="621" grid="1" gridSize="10" guides="1" tooltips="1" connect="1" arrows="1" fold="1" page="1" pageScale="1" pageWidth="827" pageHeight="1169" math="0" shadow="0">
      <root>
        <mxCell id="0" />
        <mxCell id="1" parent="0" />
        <mxCell id="ADZbkhmCHiRTHz0c5nEW-12" value="WYMAGANIA:&lt;div&gt;&lt;ol&gt;&lt;li&gt;Pomiar odległości&lt;/li&gt;&lt;li&gt;6 przycisków&lt;/li&gt;&lt;li&gt;Wyświetlacz 4x20&lt;/li&gt;&lt;li&gt;bateria 9V lub LI-ION&lt;/li&gt;&lt;li&gt;pomiar V akumulatora&lt;/li&gt;&lt;li&gt;transmisja BLUETOOTH&lt;/li&gt;&lt;/ol&gt;&lt;/div&gt;" style="rounded=0;whiteSpace=wrap;html=1;" parent="1" vertex="1">
          <mxGeometry x="10" y="10" width="370" height="140" as="geometry" />
        </mxCell>
        <mxCell id="bpxxsSCC8xTmTk7Tj6b8-6" value="" style="endArrow=classic;startArrow=classic;html=1;rounded=0;exitX=0.75;exitY=0;exitDx=0;exitDy=0;entryX=0.25;entryY=1;entryDx=0;entryDy=0;" parent="1" source="oec5AQP4UOIgvTSs4D5g-1" target="ADZbkhmCHiRTHz0c5nEW-8" edge="1">
          <mxGeometry width="50" height="50" relative="1" as="geometry">
            <mxPoint x="380" y="410" as="sourcePoint" />
            <mxPoint x="580" y="300" as="targetPoint" />
          </mxGeometry>
        </mxCell>
        <mxCell id="bpxxsSCC8xTmTk7Tj6b8-7" value="I2C" style="edgeLabel;html=1;align=center;verticalAlign=middle;resizable=0;points=[];" parent="bpxxsSCC8xTmTk7Tj6b8-6" vertex="1" connectable="0">
          <mxGeometry x="0.055" y="4" relative="1" as="geometry">
            <mxPoint y="-1" as="offset" />
          </mxGeometry>
        </mxCell>
        <mxCell id="bpxxsSCC8xTmTk7Tj6b8-8" value="" style="endArrow=classic;startArrow=classic;html=1;rounded=0;entryX=0;entryY=0.75;entryDx=0;entryDy=0;exitX=1;exitY=0.5;exitDx=0;exitDy=0;" parent="1" source="ADZbkhmCHiRTHz0c5nEW-3" target="oec5AQP4UOIgvTSs4D5g-1" edge="1">
          <mxGeometry width="50" height="50" relative="1" as="geometry">
            <mxPoint x="400" y="460" as="sourcePoint" />
            <mxPoint x="480" y="630" as="targetPoint" />
          </mxGeometry>
        </mxCell>
        <mxCell id="bpxxsSCC8xTmTk7Tj6b8-9" value="I2C" style="edgeLabel;html=1;align=center;verticalAlign=middle;resizable=0;points=[];" parent="bpxxsSCC8xTmTk7Tj6b8-8" vertex="1" connectable="0">
          <mxGeometry x="0.0269" y="2" relative="1" as="geometry">
            <mxPoint as="offset" />
          </mxGeometry>
        </mxCell>
        <mxCell id="bpxxsSCC8xTmTk7Tj6b8-11" value="" style="endArrow=classic;startArrow=classic;html=1;rounded=0;exitX=0.25;exitY=0;exitDx=0;exitDy=0;entryX=0.25;entryY=1;entryDx=0;entryDy=0;" parent="1" source="ADZbkhmCHiRTHz0c5nEW-10" target="oec5AQP4UOIgvTSs4D5g-1" edge="1">
          <mxGeometry width="50" height="50" relative="1" as="geometry">
            <mxPoint x="330" y="735" as="sourcePoint" />
            <mxPoint x="440" y="610" as="targetPoint" />
          </mxGeometry>
        </mxCell>
        <mxCell id="bpxxsSCC8xTmTk7Tj6b8-12" value="I2C" style="edgeLabel;html=1;align=center;verticalAlign=middle;resizable=0;points=[];" parent="bpxxsSCC8xTmTk7Tj6b8-11" vertex="1" connectable="0">
          <mxGeometry x="0.0269" y="2" relative="1" as="geometry">
            <mxPoint as="offset" />
          </mxGeometry>
        </mxCell>
        <mxCell id="bpxxsSCC8xTmTk7Tj6b8-17" value="" style="endArrow=classic;startArrow=classic;html=1;rounded=0;entryX=0.25;entryY=0;entryDx=0;entryDy=0;exitX=1;exitY=0.5;exitDx=0;exitDy=0;" parent="1" source="ADZbkhmCHiRTHz0c5nEW-4" target="oec5AQP4UOIgvTSs4D5g-1" edge="1">
          <mxGeometry width="50" height="50" relative="1" as="geometry">
            <mxPoint x="420" y="240" as="sourcePoint" />
            <mxPoint x="464.25" y="420" as="targetPoint" />
          </mxGeometry>
        </mxCell>
        <mxCell id="bpxxsSCC8xTmTk7Tj6b8-18" value="I2C" style="edgeLabel;html=1;align=center;verticalAlign=middle;resizable=0;points=[];" parent="bpxxsSCC8xTmTk7Tj6b8-17" vertex="1" connectable="0">
          <mxGeometry x="0.0269" y="2" relative="1" as="geometry">
            <mxPoint as="offset" />
          </mxGeometry>
        </mxCell>
        <mxCell id="bpxxsSCC8xTmTk7Tj6b8-19" value="" style="endArrow=classic;startArrow=classic;html=1;rounded=0;exitX=1;exitY=0.25;exitDx=0;exitDy=0;entryX=0;entryY=0.5;entryDx=0;entryDy=0;" parent="1" source="oec5AQP4UOIgvTSs4D5g-1" target="ADZbkhmCHiRTHz0c5nEW-16" edge="1">
          <mxGeometry width="50" height="50" relative="1" as="geometry">
            <mxPoint x="590" y="410" as="sourcePoint" />
            <mxPoint x="710" y="455" as="targetPoint" />
          </mxGeometry>
        </mxCell>
        <mxCell id="bpxxsSCC8xTmTk7Tj6b8-21" value="GPIO 1-6" style="edgeLabel;html=1;align=center;verticalAlign=middle;resizable=0;points=[];" parent="bpxxsSCC8xTmTk7Tj6b8-19" vertex="1" connectable="0">
          <mxGeometry x="-0.22" y="-2" relative="1" as="geometry">
            <mxPoint x="11" as="offset" />
          </mxGeometry>
        </mxCell>
        <mxCell id="LbwyyAAWYQrGKJbbFRrg-1" value="" style="endArrow=classic;startArrow=classic;html=1;rounded=0;entryX=0;entryY=0.5;entryDx=0;entryDy=0;exitX=1;exitY=0.75;exitDx=0;exitDy=0;" parent="1" source="oec5AQP4UOIgvTSs4D5g-1" target="bpxxsSCC8xTmTk7Tj6b8-23" edge="1">
          <mxGeometry width="50" height="50" relative="1" as="geometry">
            <mxPoint x="560" y="510" as="sourcePoint" />
            <mxPoint x="630" y="525" as="targetPoint" />
          </mxGeometry>
        </mxCell>
        <mxCell id="LbwyyAAWYQrGKJbbFRrg-2" value="I2C" style="edgeLabel;html=1;align=center;verticalAlign=middle;resizable=0;points=[];" parent="LbwyyAAWYQrGKJbbFRrg-1" vertex="1" connectable="0">
          <mxGeometry x="0.0269" y="2" relative="1" as="geometry">
            <mxPoint as="offset" />
          </mxGeometry>
        </mxCell>
        <mxCell id="LbwyyAAWYQrGKJbbFRrg-5" value="" style="group" parent="1" vertex="1" connectable="0">
          <mxGeometry x="480" y="910" width="10" height="70" as="geometry" />
        </mxCell>
        <mxCell id="LbwyyAAWYQrGKJbbFRrg-3" value="" style="endArrow=none;html=1;rounded=0;strokeWidth=4;" parent="LbwyyAAWYQrGKJbbFRrg-5" edge="1">
          <mxGeometry width="50" height="50" relative="1" as="geometry">
            <mxPoint y="70" as="sourcePoint" />
            <mxPoint as="targetPoint" />
          </mxGeometry>
        </mxCell>
        <mxCell id="LbwyyAAWYQrGKJbbFRrg-4" value="" style="endArrow=none;html=1;rounded=0;strokeWidth=4;fillColor=#e51400;strokeColor=#B20000;" parent="LbwyyAAWYQrGKJbbFRrg-5" edge="1">
          <mxGeometry width="50" height="50" relative="1" as="geometry">
            <mxPoint x="10" y="70" as="sourcePoint" />
            <mxPoint x="10" as="targetPoint" />
          </mxGeometry>
        </mxCell>
        <mxCell id="ADZbkhmCHiRTHz0c5nEW-5" value="ogniwo &lt;font style=&quot;font-size: 18px;&quot;&gt;&lt;b&gt;LIT-ION 18650&lt;/b&gt;&lt;/font&gt;&amp;nbsp;&lt;div&gt;&lt;span style=&quot;background-color: rgb(255, 153, 51);&quot;&gt;&lt;b&gt;4.7V&lt;/b&gt;&lt;/span&gt;&lt;/div&gt;" style="rounded=0;whiteSpace=wrap;html=1;" parent="1" vertex="1">
          <mxGeometry x="460" y="950" width="250" height="80" as="geometry" />
        </mxCell>
        <mxCell id="LbwyyAAWYQrGKJbbFRrg-13" value="" style="endArrow=none;html=1;rounded=0;edgeStyle=orthogonalEdgeStyle;entryX=0.842;entryY=1.006;entryDx=0;entryDy=0;strokeWidth=4;entryPerimeter=0;" parent="1" target="LbwyyAAWYQrGKJbbFRrg-9" edge="1">
          <mxGeometry width="50" height="50" relative="1" as="geometry">
            <mxPoint x="430" y="810" as="sourcePoint" />
            <mxPoint x="430" y="750" as="targetPoint" />
            <Array as="points">
              <mxPoint x="430" y="750" />
              <mxPoint x="350" y="750" />
              <mxPoint x="350" y="671" />
            </Array>
          </mxGeometry>
        </mxCell>
        <mxCell id="LbwyyAAWYQrGKJbbFRrg-15" value="" style="endArrow=none;html=1;rounded=0;edgeStyle=orthogonalEdgeStyle;entryX=0.16;entryY=1.006;entryDx=0;entryDy=0;strokeWidth=4;entryPerimeter=0;" parent="1" target="ADZbkhmCHiRTHz0c5nEW-21" edge="1">
          <mxGeometry width="50" height="50" relative="1" as="geometry">
            <mxPoint x="430" y="750" as="sourcePoint" />
            <mxPoint x="538" y="720" as="targetPoint" />
            <Array as="points">
              <mxPoint x="530" y="750" />
            </Array>
          </mxGeometry>
        </mxCell>
        <mxCell id="LbwyyAAWYQrGKJbbFRrg-17" value="" style="endArrow=none;html=1;rounded=0;edgeStyle=orthogonalEdgeStyle;fillColor=#e51400;strokeColor=#B20000;strokeWidth=4;" parent="1" target="ADZbkhmCHiRTHz0c5nEW-21" edge="1">
          <mxGeometry width="50" height="50" relative="1" as="geometry">
            <mxPoint x="440" y="740" as="sourcePoint" />
            <mxPoint x="490" y="690" as="targetPoint" />
            <Array as="points">
              <mxPoint x="520" y="740" />
            </Array>
          </mxGeometry>
        </mxCell>
        <mxCell id="LbwyyAAWYQrGKJbbFRrg-18" value="" style="group" parent="1" vertex="1" connectable="0">
          <mxGeometry x="180" y="460" width="10" height="180" as="geometry" />
        </mxCell>
        <mxCell id="LbwyyAAWYQrGKJbbFRrg-19" value="" style="endArrow=none;html=1;rounded=0;strokeWidth=4;" parent="LbwyyAAWYQrGKJbbFRrg-18" edge="1">
          <mxGeometry width="50" height="50" relative="1" as="geometry">
            <mxPoint y="180" as="sourcePoint" />
            <mxPoint as="targetPoint" />
          </mxGeometry>
        </mxCell>
        <mxCell id="LbwyyAAWYQrGKJbbFRrg-20" value="" style="endArrow=none;html=1;rounded=0;strokeWidth=4;fillColor=#e51400;strokeColor=#B20000;" parent="LbwyyAAWYQrGKJbbFRrg-18" edge="1">
          <mxGeometry width="50" height="50" relative="1" as="geometry">
            <mxPoint x="10" y="180" as="sourcePoint" />
            <mxPoint x="10" as="targetPoint" />
          </mxGeometry>
        </mxCell>
        <mxCell id="ADZbkhmCHiRTHz0c5nEW-3" value="Laserowy czujnik odległości Lidar &lt;b&gt;&lt;font style=&quot;font-size: 18px;&quot;&gt;TF Luna&lt;/font&gt;&lt;/b&gt; - 8m - UART/I2C&lt;div&gt;&lt;b style=&quot;background-color: rgb(51, 255, 255);&quot;&gt;5V&lt;/b&gt;&lt;/div&gt;&lt;div&gt;#define TFL_DEF_ADR&amp;nbsp; &amp;nbsp; &amp;nbsp; 0x10&amp;nbsp; &amp;nbsp;// default I2C address = 16&lt;/div&gt;&lt;div&gt;Maksymalny pobór prądu: &lt;span style=&quot;background-color: rgb(255, 51, 51);&quot;&gt;150 mA&lt;/span&gt;&lt;br&gt;&lt;/div&gt;" style="rounded=0;whiteSpace=wrap;html=1;container=0;" parent="1" vertex="1">
          <mxGeometry x="90" y="360" width="210" height="120" as="geometry" />
        </mxCell>
        <mxCell id="LbwyyAAWYQrGKJbbFRrg-21" value="" style="group" parent="1" vertex="1" connectable="0">
          <mxGeometry x="520" y="450" width="10" height="180" as="geometry" />
        </mxCell>
        <mxCell id="LbwyyAAWYQrGKJbbFRrg-22" value="" style="endArrow=none;html=1;rounded=0;strokeWidth=4;" parent="LbwyyAAWYQrGKJbbFRrg-21" edge="1">
          <mxGeometry width="50" height="50" relative="1" as="geometry">
            <mxPoint y="180" as="sourcePoint" />
            <mxPoint as="targetPoint" />
          </mxGeometry>
        </mxCell>
        <mxCell id="LbwyyAAWYQrGKJbbFRrg-23" value="" style="endArrow=none;html=1;rounded=0;strokeWidth=4;fillColor=#e51400;strokeColor=#B20000;" parent="LbwyyAAWYQrGKJbbFRrg-21" edge="1">
          <mxGeometry width="50" height="50" relative="1" as="geometry">
            <mxPoint x="10" y="180" as="sourcePoint" />
            <mxPoint x="10" as="targetPoint" />
          </mxGeometry>
        </mxCell>
        <mxCell id="ADZbkhmCHiRTHz0c5nEW-21" value="&lt;h1 style=&quot;box-sizing: border-box; font-size: 18px; margin: 0px; font-family: Arial, Helvetica, sans-serif; line-height: 1.1; color: rgb(51, 51, 51); text-align: start;&quot; class=&quot;panel-title&quot;&gt;RT6154AGQW&lt;/h1&gt;&lt;div&gt;przetwornica BUCKBOOST&lt;/div&gt;&lt;div&gt;regulator napiaęcia&lt;/div&gt;&lt;div&gt;IN: 1.8V - 5.5V&lt;/div&gt;&lt;div&gt;OUT: 3.3V&lt;/div&gt;&lt;div&gt;3A&amp;nbsp; Maximum&amp;nbsp; Load&amp;nbsp; Capability&amp;nbsp; for&amp;nbsp; VIN&amp;nbsp; &amp;gt;&amp;nbsp; 3.6V&lt;/div&gt;" style="rounded=0;whiteSpace=wrap;html=1;" parent="1" vertex="1">
          <mxGeometry x="500" y="585" width="250" height="115" as="geometry" />
        </mxCell>
        <mxCell id="LbwyyAAWYQrGKJbbFRrg-24" value="" style="group;rotation=10;" parent="1" vertex="1" connectable="0">
          <mxGeometry x="520" y="200" width="10" height="180" as="geometry" />
        </mxCell>
        <mxCell id="LbwyyAAWYQrGKJbbFRrg-25" value="" style="endArrow=none;html=1;rounded=0;strokeWidth=4;" parent="LbwyyAAWYQrGKJbbFRrg-24" edge="1">
          <mxGeometry width="50" height="50" relative="1" as="geometry">
            <mxPoint x="-16" y="178" as="sourcePoint" />
            <mxPoint x="16" as="targetPoint" />
          </mxGeometry>
        </mxCell>
        <mxCell id="LbwyyAAWYQrGKJbbFRrg-26" value="" style="endArrow=none;html=1;rounded=0;strokeWidth=4;fillColor=#e51400;strokeColor=#B20000;" parent="LbwyyAAWYQrGKJbbFRrg-24" edge="1">
          <mxGeometry width="50" height="50" relative="1" as="geometry">
            <mxPoint x="-6" y="180" as="sourcePoint" />
            <mxPoint x="26" y="2" as="targetPoint" />
          </mxGeometry>
        </mxCell>
        <mxCell id="ADZbkhmCHiRTHz0c5nEW-8" value="&lt;div style=&quot;font-size: 18px;&quot;&gt;&lt;b style=&quot;&quot;&gt;&lt;font style=&quot;font-size: 18px;&quot;&gt;LCD 4x20 + konwerter I2C&lt;/font&gt;&lt;/b&gt;&lt;/div&gt;&lt;div&gt;https://www.buydisplay.com/3-3v-or-5v-display-lcd-screen-20x4-arduino-i2c-character-module&lt;/div&gt;&lt;div&gt;&lt;br&gt;&lt;/div&gt;&lt;div&gt;&lt;b style=&quot;background-color: rgb(102, 255, 102);&quot;&gt;3.3V&lt;/b&gt;&lt;span style=&quot;background-color: rgb(255, 255, 255);&quot;&gt;&amp;nbsp;or&amp;nbsp;&lt;/span&gt;&lt;b style=&quot;background-color: rgb(102, 255, 255);&quot;&gt;5V&lt;/b&gt;&lt;/div&gt;&lt;div&gt;&lt;span style=&quot;background-color: initial;&quot;&gt;I2C converter for HD44780&lt;/span&gt;&lt;/div&gt;&lt;div&gt;Chipset PCF8574 - 0x20&amp;nbsp;&lt;/div&gt;&lt;div&gt;Chipset PCF8574T - 0x27&amp;nbsp;&lt;/div&gt;&lt;div&gt;Chipset PCF8574A - 0x38&amp;nbsp;&lt;/div&gt;&lt;div&gt;Chipset PCF8574AT - 0x3F&lt;/div&gt;&lt;div&gt;Nie przerysowujemy&lt;/div&gt;&lt;div&gt;With backlightning: on avg &lt;span style=&quot;background-color: rgb(255, 51, 51);&quot;&gt;&amp;lt; 40mA&lt;/span&gt;&lt;/div&gt;" style="rounded=0;whiteSpace=wrap;html=1;" parent="1" vertex="1">
          <mxGeometry x="490" y="30" width="290" height="190" as="geometry" />
        </mxCell>
        <mxCell id="LbwyyAAWYQrGKJbbFRrg-27" value="" style="group;rotation=-40;" parent="1" vertex="1" connectable="0">
          <mxGeometry x="403" y="230" width="10" height="180" as="geometry" />
        </mxCell>
        <mxCell id="LbwyyAAWYQrGKJbbFRrg-28" value="" style="endArrow=none;html=1;rounded=0;strokeWidth=4;" parent="LbwyyAAWYQrGKJbbFRrg-27" edge="1">
          <mxGeometry width="50" height="50" relative="1" as="geometry">
            <mxPoint x="58" y="163" as="sourcePoint" />
            <mxPoint x="-56" y="24" as="targetPoint" />
          </mxGeometry>
        </mxCell>
        <mxCell id="LbwyyAAWYQrGKJbbFRrg-29" value="" style="endArrow=none;html=1;rounded=0;strokeWidth=4;fillColor=#e51400;strokeColor=#B20000;" parent="LbwyyAAWYQrGKJbbFRrg-27" edge="1">
          <mxGeometry width="50" height="50" relative="1" as="geometry">
            <mxPoint x="66" y="156" as="sourcePoint" />
            <mxPoint x="-48" y="17" as="targetPoint" />
          </mxGeometry>
        </mxCell>
        <mxCell id="ADZbkhmCHiRTHz0c5nEW-4" value="Fermion - czujnik ultradźwiękowy 15-900cm - &lt;b&gt;&lt;font style=&quot;font-size: 18px;&quot;&gt;URM13 &lt;/font&gt;&lt;/b&gt;- DFRobot SEN0352&lt;div&gt;&lt;br&gt;&lt;/div&gt;&lt;div&gt;This sensor works well with&lt;br&gt;&lt;b style=&quot;background-color: rgb(102, 255, 102);&quot;&gt;3.3V&lt;/b&gt;&lt;span style=&quot;background-color: rgb(255, 255, 255);&quot;&gt;&amp;nbsp;or&amp;nbsp;&lt;/span&gt;&lt;b style=&quot;background-color: rgb(102, 255, 255);&quot;&gt;5V&lt;/b&gt; mainboards like Arduino and Raspberry Pi.&lt;/div&gt;&lt;div&gt;&lt;br&gt;&lt;/div&gt;&lt;div&gt;#define&amp;nbsp; &amp;nbsp;SLAVE_ADDR&amp;nbsp; ((uint16_t)0x0D) // i2c address = 13&lt;/div&gt;&lt;div&gt;Maksymalny chwilowy prąd roboczy: &lt;span style=&quot;background-color: rgb(255, 51, 51);&quot;&gt;350 mA&lt;/span&gt;&lt;br&gt;&lt;/div&gt;" style="rounded=0;whiteSpace=wrap;html=1;" parent="1" vertex="1">
          <mxGeometry x="44" y="170" width="336" height="160" as="geometry" />
        </mxCell>
        <mxCell id="LbwyyAAWYQrGKJbbFRrg-30" value="" style="group;rotation=99;" parent="1" vertex="1" connectable="0">
          <mxGeometry x="610" y="360" width="10" height="180" as="geometry" />
        </mxCell>
        <mxCell id="LbwyyAAWYQrGKJbbFRrg-31" value="" style="endArrow=none;html=1;rounded=0;strokeWidth=4;" parent="LbwyyAAWYQrGKJbbFRrg-30" edge="1">
          <mxGeometry width="50" height="50" relative="1" as="geometry">
            <mxPoint x="-83" y="71" as="sourcePoint" />
            <mxPoint x="95" y="99" as="targetPoint" />
          </mxGeometry>
        </mxCell>
        <mxCell id="LbwyyAAWYQrGKJbbFRrg-32" value="" style="endArrow=none;html=1;rounded=0;strokeWidth=4;fillColor=#e51400;strokeColor=#B20000;" parent="LbwyyAAWYQrGKJbbFRrg-30" edge="1">
          <mxGeometry width="50" height="50" relative="1" as="geometry">
            <mxPoint x="-85" y="81" as="sourcePoint" />
            <mxPoint x="93" y="109" as="targetPoint" />
          </mxGeometry>
        </mxCell>
        <mxCell id="bpxxsSCC8xTmTk7Tj6b8-23" value="&lt;span style=&quot;font-size: 18px;&quot;&gt;&lt;b&gt;BLE HM-BT4502&lt;/b&gt;&lt;/span&gt;&lt;br&gt;&lt;div&gt;&lt;br&gt;&lt;/div&gt;&lt;div&gt;Bluetooth 5.0&lt;/div&gt;&lt;div&gt;&lt;span style=&quot;color: rgb(68, 68, 68); font-family: Roboto, &amp;quot;Noto Sans&amp;quot;, Arial, Helvetica, sans-serif, dk; text-align: left; background-color: rgb(255, 255, 255);&quot;&gt;zasilanie: 1.8V - 3.6V&lt;/span&gt;&lt;br&gt;&lt;/div&gt;&lt;div&gt;&lt;span style=&quot;text-align: left;&quot;&gt;&lt;font style=&quot;&quot; face=&quot;Roboto, Noto Sans, Arial, Helvetica, sans-serif, dk&quot; color=&quot;#444444&quot;&gt;&lt;span style=&quot;background-color: rgb(255, 255, 255);&quot;&gt;Podczas odbierania danych: &lt;/span&gt;&lt;span style=&quot;background-color: rgb(255, 51, 51);&quot;&gt;&amp;lt; 8 mA&lt;/span&gt;&lt;span style=&quot;background-color: rgb(255, 255, 255);&quot;&gt; / 3 V p&lt;/span&gt;&lt;/font&gt;&lt;/span&gt;&lt;/div&gt;&lt;div&gt;&lt;span style=&quot;text-align: left; background-color: rgb(255, 255, 255);&quot;&gt;&lt;font face=&quot;Roboto, Noto Sans, Arial, Helvetica, sans-serif, dk&quot; color=&quot;#444444&quot;&gt;Podczas wysyłania danych:&amp;nbsp;&lt;/font&gt;&lt;/span&gt;&lt;/div&gt;&lt;div&gt;&lt;span style=&quot;text-align: left;&quot;&gt;&lt;font style=&quot;&quot; face=&quot;Roboto, Noto Sans, Arial, Helvetica, sans-serif, dk&quot; color=&quot;#444444&quot;&gt;&lt;span style=&quot;background-color: rgb(255, 51, 51);&quot;&gt;&amp;lt; 4 uA&lt;/span&gt;&lt;span style=&quot;background-color: rgb(255, 255, 255);&quot;&gt; / 3 V&lt;/span&gt;&lt;/font&gt;&lt;br&gt;&lt;/span&gt;&lt;/div&gt;" style="rounded=0;whiteSpace=wrap;html=1;" parent="1" vertex="1">
          <mxGeometry x="650" y="430" width="160" height="140" as="geometry" />
        </mxCell>
        <mxCell id="LbwyyAAWYQrGKJbbFRrg-33" value="" style="endArrow=none;html=1;rounded=0;strokeWidth=4;entryX=0.25;entryY=1;entryDx=0;entryDy=0;" parent="1" edge="1">
          <mxGeometry width="50" height="50" relative="1" as="geometry">
            <mxPoint x="560" y="390" as="sourcePoint" />
            <mxPoint x="710" y="290" as="targetPoint" />
          </mxGeometry>
        </mxCell>
        <mxCell id="oec5AQP4UOIgvTSs4D5g-1" value="&lt;b&gt;&lt;font style=&quot;font-size: 18px;&quot;&gt;RP2040&lt;/font&gt;&lt;/b&gt;&lt;div&gt;&lt;b style=&quot;background-color: rgb(102, 255, 102);&quot;&gt;3.3V&lt;/b&gt;&lt;/div&gt;&lt;div&gt;RP2040 typically draws &lt;span style=&quot;background-color: rgb(255, 51, 51);&quot;&gt;25–30 mA&lt;/span&gt;&lt;b style=&quot;background-color: rgb(102, 255, 102);&quot;&gt;&lt;br&gt;&lt;/b&gt;&lt;/div&gt;" style="whiteSpace=wrap;html=1;aspect=fixed;" parent="1" vertex="1">
          <mxGeometry x="430" y="360" width="140" height="140" as="geometry" />
        </mxCell>
        <mxCell id="snLY0BxpSdT4fI3uoA9b-30" value="" style="group" parent="1" vertex="1" connectable="0">
          <mxGeometry x="700" y="250" width="90" height="120" as="geometry" />
        </mxCell>
        <mxCell id="ADZbkhmCHiRTHz0c5nEW-16" value="&lt;b&gt;&lt;font style=&quot;font-size: 18px;&quot;&gt;B2&lt;/font&gt;&lt;/b&gt;" style="whiteSpace=wrap;html=1;aspect=fixed;" parent="snLY0BxpSdT4fI3uoA9b-30" vertex="1">
          <mxGeometry y="40" width="40" height="40" as="geometry" />
        </mxCell>
        <mxCell id="ADZbkhmCHiRTHz0c5nEW-17" value="&lt;b&gt;&lt;font style=&quot;font-size: 18px;&quot;&gt;B3&lt;/font&gt;&lt;/b&gt;" style="whiteSpace=wrap;html=1;aspect=fixed;" parent="snLY0BxpSdT4fI3uoA9b-30" vertex="1">
          <mxGeometry y="80" width="40" height="40" as="geometry" />
        </mxCell>
        <mxCell id="ADZbkhmCHiRTHz0c5nEW-18" value="&lt;b&gt;&lt;font style=&quot;font-size: 18px;&quot;&gt;B4&lt;/font&gt;&lt;/b&gt;" style="whiteSpace=wrap;html=1;aspect=fixed;" parent="snLY0BxpSdT4fI3uoA9b-30" vertex="1">
          <mxGeometry x="50" width="40" height="40" as="geometry" />
        </mxCell>
        <mxCell id="ADZbkhmCHiRTHz0c5nEW-19" value="&lt;font style=&quot;font-size: 18px;&quot;&gt;&lt;b&gt;B5&lt;/b&gt;&lt;/font&gt;" style="whiteSpace=wrap;html=1;aspect=fixed;" parent="snLY0BxpSdT4fI3uoA9b-30" vertex="1">
          <mxGeometry x="50" y="40" width="40" height="40" as="geometry" />
        </mxCell>
        <mxCell id="ADZbkhmCHiRTHz0c5nEW-20" value="&lt;font style=&quot;font-size: 18px;&quot;&gt;&lt;b&gt;B6&lt;/b&gt;&lt;/font&gt;" style="whiteSpace=wrap;html=1;aspect=fixed;" parent="snLY0BxpSdT4fI3uoA9b-30" vertex="1">
          <mxGeometry x="50" y="80" width="40" height="40" as="geometry" />
        </mxCell>
        <mxCell id="ADZbkhmCHiRTHz0c5nEW-13" value="&lt;b&gt;&lt;font style=&quot;font-size: 18px;&quot;&gt;B1&lt;/font&gt;&lt;/b&gt;" style="whiteSpace=wrap;html=1;aspect=fixed;" parent="snLY0BxpSdT4fI3uoA9b-30" vertex="1">
          <mxGeometry width="40" height="40" as="geometry" />
        </mxCell>
        <mxCell id="LbwyyAAWYQrGKJbbFRrg-16" value="" style="endArrow=none;html=1;rounded=0;edgeStyle=orthogonalEdgeStyle;strokeWidth=4;fillColor=#e51400;strokeColor=#B20000;" parent="1" edge="1">
          <mxGeometry width="50" height="50" relative="1" as="geometry">
            <mxPoint x="443.03000000000003" y="800" as="sourcePoint" />
            <mxPoint x="359" y="590" as="targetPoint" />
            <Array as="points">
              <mxPoint x="443" y="740" />
              <mxPoint x="360" y="740" />
              <mxPoint x="360" y="710" />
              <mxPoint x="359" y="710" />
            </Array>
          </mxGeometry>
        </mxCell>
        <mxCell id="LbwyyAAWYQrGKJbbFRrg-9" value="&lt;h1 style=&quot;text-align: center; box-sizing: border-box; margin: 0px; line-height: 1.1;&quot; class=&quot;panel-title&quot;&gt;&lt;span style=&quot;color: rgb(51, 51, 51); font-family: Arial, Helvetica, sans-serif; text-align: start; background-color: rgb(255, 255, 255);&quot;&gt;&lt;font style=&quot;font-size: 18px;&quot;&gt;LT1302CN8-5#PBF&lt;/font&gt;&lt;/span&gt;&lt;br&gt;&lt;/h1&gt;&lt;h1 style=&quot;box-sizing: border-box; font-size: 18px; margin: 0px; font-family: Arial, Helvetica, sans-serif; line-height: 1.1; color: rgb(51, 51, 51); text-align: start;&quot; class=&quot;panel-title&quot;&gt;&lt;span style=&quot;background-color: initial; color: rgb(0, 0, 0); font-family: Helvetica; font-size: 12px; font-weight: normal; text-align: center;&quot;&gt;Przetwornica BOOST&lt;/span&gt;&lt;/h1&gt;&lt;h1 style=&quot;box-sizing: border-box; font-size: 18px; margin: 0px; font-family: Arial, Helvetica, sans-serif; line-height: 1.1; color: rgb(51, 51, 51); text-align: start;&quot; class=&quot;panel-title&quot;&gt;&lt;span style=&quot;background-color: initial; color: rgb(0, 0, 0); font-family: Helvetica; font-size: 12px; font-weight: normal; text-align: center;&quot;&gt;regulator napięcia&lt;/span&gt;&lt;/h1&gt;&lt;div&gt;IN: 2.0V-8.0V&lt;/div&gt;&lt;div&gt;OUT: 5.0V&lt;/div&gt;&lt;div&gt;Iout MAX: 200mA&lt;/div&gt;" style="rounded=0;whiteSpace=wrap;html=1;" parent="1" vertex="1">
          <mxGeometry x="140" y="540" width="250" height="120" as="geometry" />
        </mxCell>
        <mxCell id="ADZbkhmCHiRTHz0c5nEW-10" value="&lt;b&gt;&lt;font style=&quot;font-size: 18px;&quot;&gt;LC709203F&lt;/font&gt;&lt;/b&gt; - wskaźnik poziomu naładowania akumulatora Li-Pol / Li-Ion - STEMMA QT / Qwiic - Adafruit 4712&lt;div&gt;&lt;br&gt;&lt;/div&gt;&lt;div&gt;Address I2C: 0x0B&lt;/div&gt;&lt;div&gt;&lt;br&gt;&lt;/div&gt;&lt;div&gt;Przerysowujemy&lt;/div&gt;" style="rounded=0;whiteSpace=wrap;html=1;" parent="1" vertex="1">
          <mxGeometry x="407" y="780" width="236" height="130" as="geometry" />
        </mxCell>
      </root>
    </mxGraphModel>
  </diagram>
</mxfile>
